# xmcd
#
# Track frame offsets:
#	150
#	25113
#	44176
#	64628
#	86348
#	123112
#	160155
#	174451
#	193378
#	205936
#
# Disc length: 3279 seconds
#
# Revision: 0
# Processed by: cddbd v1.5.2PL0 Copyright (c) Steve Scherf et al.
# Submitted via: EasyCDDAExtractor 11.1.0.1
#
DISCID=850ccd0a
DTITLE=Acoustic Solutions vol.3 - 어쿠스틱 솔루션 3집 (SACD)
DYEAR=1900
DGENRE=
TTITLE0=Calle Ventana
TTITLE1=El viento del este (Tangos)
TTITLE2=Cae la noche (Tarantas)
TTITLE3=Mi companera (Bulerias lenta)
TTITLE4=Cizudomi guitaarra
TTITLE5=Cuando mi guitarra llora (Solea por bulerias)
TTITLE6=Primavera (Alegrias)
TTITLE7=Aurora (Tanguillos)
TTITLE8=Guitarra llora
TTITLE9=Alegeris
EXTD=
EXTT0=
EXTT1=
EXTT2=
EXTT3=
EXTT4=
EXTT5=
EXTT6=
EXTT7=
EXTT8=
EXTT9=
PLAYORDER=
